# xmcd
#
# Track frame offsets:
#	150
#	12885
#	24529
#	36238
#	49699
#	63247
#	75825
#	88380
#	101020
#	114787
#	128490
#	142387
#	156410
#	170544
#	184548
#	197894
#
# Disc length: 2818 seconds
# Revision: 2
# Processed by: cddbd v1.5.2PL0 Copyright (c) Steve Scherf et al.
# Submitted via: dBpowerAMP V12.0
#
DISCID=d00b0010
DTITLE=Ernest Tubb - The Old Rugged Cross - The Songs Of Jimmy Rodgers
DYEAR=1952
DGENRE=Classic Country
TTITLE0=stand by me
TTITLE1=the old rugged cross
TTITLE2=what a friend we have in jesus
TTITLE3=the wonderful city
TTITLE4=when i take my vacation in heaven
TTITLE5=farther along
TTITLE6=may the good lord bless and keep you
TTITLE7=when it's prayer meetin' time in the hollow
TTITLE8=mother the queen of my heart
TTITLE9=i'm lonely and blue
TTITLE10=why did you give me your love
TTITLE11=i'm free from the chain gang now
TTITLE12=why should i be lonely
TTITLE13=hobo's meditation
TTITLE14=a drunkard's child
TTITLE15=any old time
EXTD=
EXTT0=
EXTT1=
EXTT2=
EXTT3=
EXTT4=
EXTT5=
EXTT6=
EXTT7=
EXTT8=
EXTT9=
EXTT10=
EXTT11=
EXTT12=
EXTT13=
EXTT14=
EXTT15=
PLAYORDER=
